<?xml version="1.0" encoding="UTF-8" standalone="no"?>
<!-- Generator: Adobe Illustrator 15.0.0, SVG Export Plug-In . SVG Version: 6.00 Build 0)  -->

<svg
   xmlns:dc="http://purl.org/dc/elements/1.1/"
   xmlns:cc="http://creativecommons.org/ns#"
   xmlns:rdf="http://www.w3.org/1999/02/22-rdf-syntax-ns#"
   xmlns:svg="http://www.w3.org/2000/svg"
   xmlns="http://www.w3.org/2000/svg"
   xmlns:sodipodi="http://sodipodi.sourceforge.net/DTD/sodipodi-0.dtd"
   xmlns:inkscape="http://www.inkscape.org/namespaces/inkscape"
   version="1.1"
   id="Layer_1"
   x="0px"
   y="0px"
   width="32"
   height="32"
   viewBox="0 0 31.999998 31.999999"
   enable-background="new 0 0 595.28 841.89"
   xml:space="preserve"
   inkscape:version="0.48.2 r9819"
   sodipodi:docname="vectorized-icon.svg"
   inkscape:export-filename="C:\Users\mw\Documents\netProjekte2\Screengrab5.4\vectorized-icon-128.png"
   inkscape:export-xdpi="360"
   inkscape:export-ydpi="360"><metadata
   id="metadata3125"><rdf:RDF><cc:Work
       rdf:about=""><dc:format>image/svg+xml</dc:format><dc:type
         rdf:resource="http://purl.org/dc/dcmitype/StillImage" /><dc:title></dc:title></cc:Work></rdf:RDF></metadata><defs
   id="defs3123" /><sodipodi:namedview
   pagecolor="#ffffff"
   bordercolor="#666666"
   borderopacity="1"
   objecttolerance="10"
   gridtolerance="10"
   guidetolerance="10"
   inkscape:pageopacity="0"
   inkscape:pageshadow="2"
   inkscape:window-width="1200"
   inkscape:window-height="663"
   id="namedview3121"
   showgrid="false"
   fit-margin-top="0"
   fit-margin-left="0"
   fit-margin-right="0"
   fit-margin-bottom="0"
   inkscape:object-paths="true"
   inkscape:zoom="17.940586"
   inkscape:cx="17.199315"
   inkscape:cy="18.638793"
   inkscape:window-x="0"
   inkscape:window-y="0"
   inkscape:window-maximized="0"
   inkscape:current-layer="g3101" />
<g
   id="g3087"
   transform="translate(-466.50001,-414.445)">
	<g
   id="g3089">
		<path
   clip-rule="evenodd"
   d="m 306.416,417.667 c 0,1 0,2 0,3 -1.342,-0.658 -1.861,-2.138 -2,-4 0.394,-0.196 1.48,1.639 1.303,0.896 -0.124,-0.517 0.344,-1.966 0.697,-2.625 0.771,-0.271 1.334,-0.271 2,-0.271 0.569,0.271 0.474,1.662 1,1.628 1.233,-0.079 1.691,-0.596 2.271,-0.263 0.358,0.206 0.095,4.472 0.313,4.094 0.688,-1.195 1.957,-1.401 2.073,-1.877 0.114,-0.467 0.662,0.394 1.343,0.418 0,1.333 0,2.667 0,4 -1.357,2.309 -2.875,4.459 -3,8 -0.332,0 -0.666,0 -1,0 0.012,-4.988 3.582,-6.418 3,-12 -1.23,0.437 -2.053,1.28 -2,3 -2.168,0.168 -0.453,-3.547 -1,-5 -1.162,-0.163 -1.779,0.221 -2,1 0.086,1.419 0.166,2.832 -1,3 0,-1.667 0,-3.333 0,-5 -1.701,-0.368 -1.887,0.779 -2,2 z"
   id="path3091"
   inkscape:connector-curvature="0"
   style="fill:#010102;fill-rule:evenodd" />
		<path
   clip-rule="evenodd"
   d="m 299.416,421.667 c 0.805,-0.529 1.624,-1.043 3,-1 -0.109,-2.488 -1.873,-3.096 0,-5 0.419,-0.066 1.211,0.006 1.615,0.208 0.459,0.23 0.51,0.607 0.594,0.755 0.159,0.278 -0.683,0.009 -1.209,0.037 -2.994,0.658 0.957,2.138 0,4 -0.804,0.529 -1.623,1.043 -3,1 0.396,4.271 4.426,4.908 5,9 -0.333,0 -0.666,0 -1,0 -0.832,-3.166 -2.916,-5.082 -5,-7 0,-0.667 0,-1.334 0,-2 z"
   id="path3093"
   inkscape:connector-curvature="0"
   style="fill:#010102;fill-rule:evenodd" />
		<path
   clip-rule="evenodd"
   d="m 312.416,423.666 c -2.322,-2.415 -2.676,1.563 -5,2 1.119,2.078 1.078,2.119 -1,1 0.678,-2.322 3.324,-2.676 4,-5 0.811,0.19 0.998,1.003 2,1 0,0.334 0,0.667 0,1 z"
   id="path3095"
   inkscape:connector-curvature="0"
   style="fill:#f9cbcd;fill-rule:evenodd" />
		<path
   clip-rule="evenodd"
   d="m 312.416,423.666 c 0,-0.333 0,-0.666 0,-1 -1.002,0.004 -1.189,-0.81 -2,-1 -0.082,-1.583 0.48,-3.814 -1,-4 0.221,-0.779 0.838,-1.163 2,-1 0.547,1.453 -1.168,5.168 1,5 -0.053,-1.72 0.77,-2.563 2,-3 0.582,5.582 -2.988,7.011 -3,12 -0.666,0 -1.332,0 -2,0 -0.529,-0.805 -1.043,-1.623 -1,-3 1.314,-1.199 1.574,-0.389 3,0 -2.008,-2.039 0.443,-1.961 1,-4 z"
   id="path3097"
   inkscape:connector-curvature="0"
   style="fill:#cccc99;fill-rule:evenodd" />
		<path
   clip-rule="evenodd"
   d="m 306.416,417.667 c 0.113,-1.22 0.299,-2.368 2,-2 0,1.667 0,3.333 0,5 -0.057,0.61 -0.148,1.184 -1,1 -0.17,-1.497 0.357,-3.691 -1,-4 z"
   id="path3099"
   inkscape:connector-curvature="0"
   style="fill:#cccc99;fill-rule:evenodd" />
	</g>
</g>
<g
   id="g3101"
   transform="translate(-466.50001,-414.445)">
	<path
   style="fill:#0000ff"
   inkscape:connector-curvature="0"
   d="m 490.68241,446.91708 -12.26562,0.0233 c -0.0384,-3.9233 -2.90755,-5.90117 -5.10419,-8.87124 -2.00484,-2.71163 -6.11044,-5.81805 -4.97376,-9.72317 1.57268,-0.0883 2.76434,-0.23895 4.14139,0.38961 0.74543,0.34024 1.65835,0.86751 2.44597,1.05062 0.0294,-1.12855 0.18156,-2.43371 -0.38998,-3.4285 -0.58176,-1.01166 -2.36925,-2.90382 -2.77968,-4.07004 -0.71985,-2.03502 0.0793,-4.1103 2.8628,-4.67782 1.386,-0.28311 2.01123,1.30517 2.91266,1.89347 1.25942,0.82336 1.06763,-0.12857 1.42564,-1.26362 0.5434,-1.72463 2.35007,-3.59212 4.42012,-2.58045 0.56386,0.27531 0.56259,0.52466 1.15585,0.78959 1.01394,0.45323 2.18897,0.43375 3.07504,0.32207 1.34766,-0.17012 3.32437,2.19476 3.70667,3.4168 0.33244,1.05843 0.84899,3.11813 1.9307,3.73369 1.051,0.5987 -0.32604,0.81038 0,0 0.11763,-0.2948 1.42564,-1.66749 1.69926,-1.8532 0.42833,-0.2909 1.91023,-0.0247 2.43702,-0.007 0.24037,2.22593 0.75437,4.14797 -0.0498,6.31416 -0.4424,1.18828 -0.74159,2.4402 -1.09193,3.62978 -0.37591,1.2766 -1.23513,2.33632 -1.7031,3.58045 -0.55619,1.47529 -0.67127,3.00772 -1.09193,4.48172 -0.39381,1.38179 -1.12516,2.61293 -1.46527,3.95835 -0.25189,1.01037 -0.55748,2.20126 -1.29779,2.89085 z"
   id="path3219" /><path
   d="m 479.5,429.445 c 0.609,2.391 -1.255,7.255 1,8 1.738,-1.856 1.289,-7.165 -1,-8 z"
   id="path3103"
   inkscape:connector-curvature="0" />
	<path
   d="m 492.5,446.445 c -17.33333,0 -8.66666,0 0,0 z"
   id="path3105"
   inkscape:connector-curvature="0"
   style="fill:#ffffff"
   sodipodi:nodetypes="cc" />
	<path
   d="m 488.5,430.445 c -0.319,2.348 -1.58,3.754 -1,7 3.227,-0.488 3.387,-6.175 1,-7 z"
   id="path3107"
   inkscape:connector-curvature="0" />
	
	<path
   d="m 484.5,439.445 c 1.364,-1.349 1.906,-6.981 -1,-7 0.595,2.072 -1.236,6.57 1,7 z"
   id="path3111"
   inkscape:connector-curvature="0" />
	<path
   d="m 472.5,416.445 c -0.889,1.778 -2.792,2.542 -2,6 3.936,1.602 0.348,-4.319 3,-4 1,0 2,0 3,0 0.27,3.73 1.369,6.631 4,8 0,-3.334 0,-6.667 0,-10 1.772,-0.228 5.008,1.008 4,-2 -1.333,0 -2.667,0 -4,0 -1.483,1.184 -1.556,3.777 -3,5 -0.914,-1.753 -1.859,-3.474 -5,-3 z"
   id="path3113"
   inkscape:connector-curvature="0" />
	
	<path
   d="m 468.5,428.445 c 4.625,-0.958 4.659,2.674 7,4 3.183,-3.249 -2.205,-7.96 -3.046,-10.503 -0.851,0.473 -1.194,0.047 -1.204,0.503 -0.03,1.369 3.784,4.129 3.25,6 -3.519,-1.662 -4.852,-2.527 -8,0 0,1.333 0,2.667 0,4 4.166,3.834 8.32,7.68 10,14 1,0 2,0 3,0 0,-1.332 0,-2.666 0,-4 -5.324,-3.008 -8.433,-8.233 -11,-14 z"
   id="path3117"
   inkscape:connector-curvature="0"
   style="fill:#000000" />
	<path
   d="m 493.5,423.445 c -1.435,-2.899 -1.836,-6.831 -5,-8 -1.794,-0.127 -2.109,1.224 -4,1 0.627,3.04 -1.28,8.613 1,10 2.552,-1.115 -0.401,-7.735 2,-9 5.11,-0.443 2.26,7.074 3,11 4.237,0.237 1.763,-6.236 6,-6 1.927,12.593 -7.658,13.675 -8,24 1.333,0 2.667,0 4,0 -0.397,-7.73 4.611,-10.056 5,-17 0.333,0 0.667,0 1,0 0,-2.334 0,-4.666 0,-7 -1.995,-2.094 -4.335,-2.636 -5,1 z"
   id="path3119"
   inkscape:connector-curvature="0" />
</g>
</svg>